# Blender3D v249 OBJ File: player.blend
# www.blender3d.org
mtllib i1t1_hunter.mtl
v -0.737646 -0.007725 0.053130
v -0.737646 0.007725 0.053130
v 1.262354 0.011350 0.000000
v 1.262354 -0.011349 0.000000
v -0.737646 -0.019871 0.077815
v -0.737646 0.019871 0.077815
v 1.262354 0.026516 0.059710
v 1.262354 -0.026515 0.059710
v -0.404313 -0.017718 0.124362
v -0.070980 -0.050870 0.159558
v 0.262354 -0.081883 0.154865
v 0.595687 -0.071597 -0.091511
v 0.929020 -0.048215 -0.028157
v -0.404313 0.017718 0.124362
v -0.070980 0.050870 0.159558
v 0.262354 0.081883 0.154865
v 0.595687 0.071597 -0.091511
v 0.929020 0.048215 -0.028157
v -0.404313 -0.051959 0.207062
v -0.070980 -0.099746 0.306676
v 0.262354 -0.156878 0.362599
v 0.595687 -0.160000 0.312415
v 0.929020 -0.100000 0.193572
v -0.404313 0.051959 0.207062
v -0.070980 0.099746 0.306676
v 0.262354 0.156878 0.362599
v 0.595687 0.160000 0.312415
v 0.929020 0.100000 0.193572
v -0.737646 -0.000000 0.053130
v 1.262354 0.000000 0.000000
v -0.737646 -0.000000 0.077815
v 1.262354 0.000000 0.059710
v -0.404313 -0.000000 0.124362
v -0.070980 -0.000000 0.159558
v 0.262354 0.000000 0.154865
v 0.595687 0.000000 -0.091511
v 0.929020 0.000000 -0.028157
v -0.404313 -0.000000 0.258331
v -0.070980 -0.000000 0.357945
v 0.262354 0.000000 0.413869
v 0.595687 0.000000 0.363684
v 0.929020 0.000000 0.244842
v -0.678660 -0.339875 0.033089
v -0.678660 -0.305633 0.022049
v -0.878660 -0.307787 0.015835
v -0.878660 -0.295641 0.005447
v -0.678660 0.339875 0.033089
v -0.678660 0.305633 0.022049
v -0.878660 0.307786 0.015835
v -0.878660 0.295640 0.005447
v -0.737646 0.003862 0.053130
v 1.262354 0.005675 0.000000
v -0.737646 0.009935 0.077815
v 1.262354 0.013258 0.059710
v -0.404313 0.008859 0.124362
v -0.070980 0.025435 0.159558
v 0.262354 0.040942 0.154865
v 0.595687 0.035798 -0.091511
v 0.929020 0.024108 -0.028157
v -0.404313 0.025980 0.232696
v -0.070980 0.049873 0.332311
v 0.262354 0.078439 0.388234
v 0.595687 0.080000 0.338049
v 0.929020 0.050000 0.219207
v -0.737646 -0.003863 0.053130
v 1.262354 -0.005675 0.000000
v -0.737646 -0.009936 0.077815
v 1.262354 -0.013258 0.059710
v -0.404313 -0.008859 0.124362
v -0.070980 -0.025435 0.159558
v 0.262354 -0.040942 0.154865
v 0.595687 -0.035798 -0.091511
v 0.929020 -0.024107 -0.028157
v -0.404313 -0.025980 0.232696
v -0.070980 -0.049873 0.332311
v 0.262354 -0.078439 0.388234
v 0.595687 -0.080000 0.338049
v 0.929020 -0.050000 0.219207
v 0.507625 -0.580000 0.216623
v 0.322299 -0.578439 0.266808
v 0.136973 -0.549873 0.210884
v 0.507625 -0.425486 0.224872
v 0.322299 -0.423474 0.275057
v 0.136973 -0.386642 0.219134
v 0.507625 0.580000 0.216623
v 0.322299 0.578439 0.266808
v 0.136973 0.549873 0.210884
v 0.507625 0.425487 0.224872
v 0.322299 0.423474 0.275057
v 0.136973 0.386642 0.219134
v 0.779020 -0.090279 0.084106
v 0.779020 -0.095458 0.106279
v 0.745687 -0.092617 0.077770
v 0.745687 -0.101458 0.118163
v 0.756016 -0.189676 0.056023
v 0.789350 -0.187338 0.062358
v 0.789350 -0.192516 0.084531
v 0.756016 -0.198516 0.096416
v 0.779020 0.090279 0.084106
v 0.779020 0.095458 0.106279
v 0.745687 0.092617 0.077770
v 0.745687 0.101458 0.118163
v 0.789349 0.187338 0.062358
v 0.756016 0.189676 0.056023
v 0.789349 0.192516 0.084531
v 0.756016 0.198516 0.096416
v 0.794514 -0.241045 0.073658
v 0.794514 -0.235867 0.051485
v 0.761181 -0.247045 0.085542
v 0.761181 -0.238205 0.045149
v 0.794514 0.241045 0.073658
v 0.794514 0.235867 0.051485
v 0.761181 0.247045 0.085542
v 0.761181 0.238205 0.045149
v 0.888815 -0.177279 0.064708
v 0.893979 -0.225808 0.053834
v 0.893979 -0.230986 0.076007
v 0.888815 -0.182457 0.086881
v 0.656551 -0.208607 0.094207
v 0.661716 -0.257136 0.083333
v 0.661716 -0.248296 0.042941
v 0.656551 -0.199766 0.053815
v 0.888815 0.182457 0.086881
v 0.893979 0.230986 0.076007
v 0.893979 0.225808 0.053834
v 0.888815 0.177279 0.064708
v 0.661716 0.248296 0.042941
v 0.656551 0.199766 0.053815
v 0.661716 0.257136 0.083333
v 0.656551 0.208607 0.094207
vn -0.994651 0.100905 -0.022084
vn -0.103294 -0.971652 0.212656
vn 0.000510 0.218593 0.975816
vn 0.103294 0.971652 -0.212656
vn -0.000510 -0.218593 -0.975816
vn 0.994651 -0.100590 0.023493
vn -0.103297 -0.968585 0.226214
vn 0.000926 -0.218739 -0.975783
vn 0.103297 0.968585 -0.226214
vn -0.000926 0.218739 0.975783
vn -0.994651 -0.100905 -0.022084
vn -0.103294 0.971652 0.212656
vn -0.000510 0.218593 -0.975816
vn 0.103294 -0.971652 -0.212656
vn 0.000510 -0.218593 0.975816
vn 0.994651 0.100590 0.023493
vn -0.103297 0.968585 0.226214
vn -0.000926 -0.218739 0.975783
vn 0.103297 -0.968585 -0.226214
vn 0.000926 0.218739 -0.975783
vn 0.099122 0.972067 -0.212747
vn 0.110846 0.967793 -0.226029
vn 0.165850 -0.232391 -0.958378
vn 0.357717 0.167766 0.918636
vn 0.110846 -0.967793 -0.226029
vn 0.099122 -0.972067 -0.212746
vn 0.165850 0.232390 -0.958378
vn 0.357717 -0.167766 0.918636
vn 0.165850 -0.232390 -0.958378
vn 0.109345 0.969954 -0.217334
vn 0.109345 0.969953 -0.217334
vn 0.097229 0.971181 -0.217609
vn 0.103821 0.971599 -0.212644
vn 0.103822 0.971599 -0.212644
vn 0.102325 0.968683 -0.226236
vn -0.994651 -0.100906 -0.022084
vn 0.165850 0.232391 -0.958378
vn 0.109345 -0.969954 -0.217334
vn 0.109345 -0.969953 -0.217334
vn 0.097229 -0.971181 -0.217609
vn 0.103822 -0.971599 -0.212644
vn 0.103822 -0.971598 -0.212644
vn 0.102326 -0.968683 -0.226237
vn 0.102326 -0.968683 -0.226236
vn -0.260627 -0.051471 -0.964067
vn -0.260513 -0.051323 -0.964105
vn 0.295683 -0.050781 -0.953935
vn 0.297320 -0.048191 -0.953561
vn 0.220343 -0.427275 -0.876861
vn 0.334437 -0.361051 -0.870513
vn -0.140342 -0.280267 -0.949608
vn -0.238556 -0.374573 -0.895983
vn -0.248254 0.442834 0.861550
vn -0.419261 -0.045823 -0.906709
vn -0.026719 0.305041 0.951964
vn 0.731937 -0.036326 -0.680403
vn -0.182883 0.303183 0.935219
vn -0.315434 0.259489 0.912780
vn 0.144329 0.217149 0.965410
vn 0.249565 0.269810 0.930011
vn -0.260627 0.051471 -0.964067
vn -0.260513 0.051323 -0.964105
vn 0.295683 0.050782 -0.953935
vn 0.297320 0.048191 -0.953561
vn 0.220343 0.427275 -0.876861
vn 0.334437 0.361051 -0.870513
vn -0.140342 0.280267 -0.949608
vn -0.238556 0.374573 -0.895983
vn -0.248254 -0.442834 0.861550
vn -0.419261 0.045823 -0.906709
vn -0.026719 -0.305041 0.951964
vn 0.731937 0.036326 -0.680403
vn -0.182883 -0.303183 0.935219
vn -0.315434 -0.259489 0.912780
vn 0.144329 -0.217149 0.965410
vn 0.249566 -0.269810 0.930011
vn 0.431624 0.000000 0.902054
vn 0.443067 -0.409002 0.797752
vn 0.372660 0.000000 0.927968
vn 0.429852 -0.411927 0.803457
vn 0.337320 -0.429487 0.837709
vn 0.321498 -0.288949 0.901747
vn 0.370896 -0.423686 0.826394
vn 0.344519 -0.286468 0.894004
vn 0.140535 -0.302121 0.942854
vn 0.141662 -0.307509 0.940941
vn -0.157480 -0.306766 0.938667
vn -0.185132 -0.449243 0.874018
vn -0.256871 -0.441806 0.859549
vn -0.254412 -0.679253 0.688397
vn -0.286080 -0.438038 0.852221
vn -0.299069 -0.670217 0.679239
vn -0.359684 -0.655357 0.664179
vn -0.421378 0.000000 0.906885
vn -0.342499 -0.659883 0.668766
vn -0.361515 0.000000 0.932366
vn 0.084172 0.000000 -0.996451
vn 0.186720 0.000000 -0.982413
vn -0.594391 0.000000 -0.804176
vn -0.014078 0.000000 -0.999901
vn 0.105006 0.000000 -0.994472
vn 0.208976 0.000000 -0.977921
vn 1.000000 0.000000 -0.000000
vn -1.000000 0.000000 0.000000
vn 0.429852 0.411927 0.803457
vn 0.443067 0.409002 0.797752
vn 0.370896 0.423686 0.826394
vn 0.344519 0.286468 0.894004
vn 0.337320 0.429487 0.837709
vn 0.321497 0.288949 0.901747
vn 0.140535 0.302121 0.942854
vn 0.141662 0.307509 0.940941
vn -0.157480 0.306766 0.938667
vn -0.185132 0.449243 0.874018
vn -0.286080 0.438038 0.852221
vn -0.299069 0.670217 0.679239
vn -0.256871 0.441806 0.859549
vn -0.254412 0.679253 0.688397
vn -0.342500 0.659883 0.668766
vn -0.359684 0.655357 0.664179
vn 0.032856 0.306701 -0.951239
vn 0.030594 0.649673 -0.759598
vn -0.892735 -0.404292 0.198926
vn -0.856736 -0.335230 0.391950
vn 0.210926 -0.142658 -0.967036
vn 0.088105 -0.120607 -0.988783
vn -0.370840 0.195258 0.907938
vn -0.109924 0.157430 0.981393
vn 0.743649 0.617715 -0.255762
vn 0.679273 0.225205 -0.698478
vn 0.030594 -0.649670 -0.759601
vn 0.032856 -0.306701 -0.951239
vn -0.892735 0.404292 0.198926
vn -0.856735 0.335229 0.391953
vn 0.210926 0.142658 -0.967036
vn 0.088105 0.120607 -0.988783
vn -0.370840 -0.195258 0.907938
vn -0.109923 -0.157430 0.981393
vn 0.743649 -0.617715 -0.255762
vn 0.679273 -0.225205 -0.698478
vn 0.126953 -0.961382 -0.244188
vn 0.122416 -0.966470 -0.225720
vn -0.126846 -0.968987 -0.212072
vn -0.059825 -0.938899 -0.338953
vn -0.092337 -0.944944 -0.313934
vn -0.103681 -0.935515 -0.337731
vn -0.051430 -0.922712 -0.382044
vn -0.041793 -0.948169 -0.315005
vn 0.122415 0.966470 -0.225720
vn 0.126952 0.961382 -0.244188
vn -0.059825 0.938899 -0.338953
vn -0.126846 0.968987 -0.212072
vn -0.103681 0.935515 -0.337731
vn -0.092338 0.944944 -0.313934
vn -0.041793 0.948169 -0.315005
vn -0.051430 0.922712 -0.382044
usemtl ship1
s off
f 128//1 130//1 129//1
f 128//1 129//1 127//1
f 104//2 106//2 130//2
f 104//2 130//2 128//2
f 106//3 113//3 129//3
f 106//3 129//3 130//3
f 113//4 114//4 127//4
f 113//4 127//4 129//4
f 114//5 104//5 128//5
f 114//5 128//5 127//5
f 123//6 126//6 125//6
f 123//6 125//6 124//6
f 105//7 103//7 126//7
f 105//7 126//7 123//7
f 103//8 112//8 125//8
f 103//8 125//8 126//8
f 112//9 111//9 124//9
f 112//9 124//9 125//9
f 111//10 105//10 123//10
f 111//10 123//10 124//10
f 119//11 122//11 120//11
f 122//11 121//11 120//11
f 98//12 95//12 122//12
f 98//12 122//12 119//12
f 95//13 110//13 121//13
f 95//13 121//13 122//13
f 110//14 109//14 120//14
f 110//14 120//14 121//14
f 109//15 98//15 119//15
f 109//15 119//15 120//15
f 115//16 118//16 116//16
f 118//16 117//16 116//16
f 96//17 97//17 118//17
f 96//17 118//17 115//17
f 97//18 107//18 117//18
f 97//18 117//18 118//18
f 107//19 108//19 116//19
f 107//19 116//19 117//19
f 108//20 96//20 115//20
f 108//20 115//20 116//20
f 113//21 111//21 114//21
f 111//22 112//22 114//22
f 103//23 104//23 112//23
f 104//23 114//23 112//23
f 106//24 105//24 113//24
f 105//24 111//24 113//24
f 110//25 108//25 107//25
f 110//26 107//26 109//26
f 95//27 96//27 108//27
f 95//27 108//27 110//27
f 97//28 98//28 109//28
f 97//28 109//28 107//28
f 100//6 99//6 103//6
f 100//6 103//6 105//6
f 101//1 102//1 106//1
f 101//1 106//1 104//1
f 102//24 100//24 106//24
f 100//24 105//24 106//24
f 99//29 101//29 103//29
f 101//29 104//29 103//29
f 18//30 17//30 101//30
f 18//31 101//31 99//31
f 27//32 28//32 102//32
f 28//32 100//32 102//32
f 17//33 27//33 102//33
f 17//34 102//34 101//34
f 28//35 18//35 99//35
f 28//35 99//35 100//35
f 91//16 92//16 96//16
f 92//16 97//16 96//16
f 94//36 93//36 98//36
f 93//36 95//36 98//36
f 92//28 94//28 98//28
f 92//28 98//28 97//28
f 93//37 91//37 96//37
f 93//37 96//37 95//37
f 12//38 13//38 93//38
f 13//39 91//39 93//39
f 23//40 22//40 94//40
f 23//40 94//40 92//40
f 22//41 12//41 94//41
f 12//42 93//42 94//42
f 13//43 23//43 91//43
f 23//44 92//44 91//44
f 85//45 88//45 86//45
f 88//46 89//46 86//46
f 86//47 89//47 87//47
f 89//48 90//48 87//48
f 26//49 25//49 90//49
f 26//50 90//50 89//50
f 27//51 26//51 89//51
f 27//52 89//52 88//52
f 25//53 61//53 90//53
f 61//54 87//54 90//54
f 63//55 27//55 88//55
f 63//56 88//56 85//56
f 61//57 62//57 87//57
f 62//58 86//58 87//58
usemtl ship2
f 62//59 63//59 86//59
f 63//60 85//60 86//60
usemtl ship1
f 82//61 79//61 80//61
f 82//62 80//62 83//62
f 83//63 80//63 81//63
f 83//64 81//64 84//64
f 20//65 21//65 84//65
f 21//66 83//66 84//66
f 21//67 22//67 83//67
f 22//68 82//68 83//68
f 75//69 20//69 84//69
f 75//70 84//70 81//70
f 22//71 77//71 82//71
f 77//72 79//72 82//72
f 76//73 75//73 81//73
f 76//74 81//74 80//74
usemtl ship2
f 77//75 76//75 80//75
f 77//76 80//76 79//76
usemtl fraction
f 68//77 32//77 78//77
f 32//78 42//78 78//78
usemtl ship2
f 8//79 68//79 23//79
f 68//80 78//80 23//80
usemtl fraction
f 78//81 42//81 77//81
f 42//82 41//82 77//82
usemtl ship2
f 23//83 78//83 22//83
f 78//84 77//84 22//84
usemtl fraction
f 77//85 41//85 76//85
f 41//86 40//86 76//86
f 76//87 40//87 39//87
f 76//88 39//88 75//88
f 75//89 39//89 38//89
f 75//90 38//90 74//90
usemtl ship2
f 20//91 75//91 74//91
f 20//92 74//92 19//92
usemtl fraction
f 74//93 38//93 31//93
f 74//94 31//94 67//94
usemtl ship2
f 19//95 74//95 67//95
f 19//96 67//96 5//96
usemtl ship1
f 66//97 4//97 73//97
f 4//97 13//97 73//97
f 30//97 66//97 37//97
f 66//97 73//97 37//97
f 73//98 13//98 72//98
f 13//98 12//98 72//98
f 37//98 73//98 36//98
f 73//98 72//98 36//98
f 72//99 12//99 71//99
f 12//99 11//99 71//99
f 36//99 72//99 35//99
f 72//99 71//99 35//99
f 71//100 11//100 10//100
f 71//100 10//100 70//100
f 35//100 71//100 70//100
f 35//100 70//100 34//100
f 70//101 10//101 9//101
f 70//101 9//101 69//101
f 34//101 70//101 69//101
f 34//101 69//101 33//101
f 65//102 29//102 33//102
f 65//102 33//102 69//102
f 1//102 65//102 69//102
f 1//102 69//102 9//102
f 68//103 8//103 4//103
f 68//103 4//103 66//103
f 32//103 68//103 66//103
f 32//103 66//103 30//103
f 65//104 1//104 67//104
f 1//104 5//104 67//104
f 29//104 65//104 31//104
f 65//104 67//104 31//104
usemtl ship2
f 54//79 7//79 28//79
f 54//105 28//105 64//105
usemtl fraction
f 32//77 54//77 64//77
f 32//106 64//106 42//106
usemtl ship2
f 64//107 28//107 27//107
f 64//108 27//108 63//108
usemtl fraction
f 42//109 64//109 63//109
f 42//110 63//110 41//110
f 41//111 63//111 62//111
f 41//112 62//112 40//112
f 40//113 62//113 39//113
f 62//114 61//114 39//114
usemtl ship2
f 61//115 25//115 60//115
f 25//116 24//116 60//116
usemtl fraction
f 39//117 61//117 38//117
f 61//118 60//118 38//118
usemtl ship2
f 60//119 24//119 53//119
f 24//96 6//96 53//96
usemtl fraction
f 38//120 60//120 31//120
f 60//94 53//94 31//94
usemtl ship1
f 52//97 30//97 37//97
f 52//97 37//97 59//97
f 3//97 52//97 59//97
f 3//97 59//97 18//97
f 59//98 37//98 36//98
f 59//98 36//98 58//98
f 18//98 59//98 58//98
f 18//98 58//98 17//98
f 58//99 36//99 35//99
f 58//99 35//99 57//99
f 17//99 58//99 57//99
f 17//99 57//99 16//99
f 57//100 35//100 56//100
f 35//100 34//100 56//100
f 16//100 57//100 15//100
f 57//100 56//100 15//100
f 56//101 34//101 55//101
f 34//101 33//101 55//101
f 15//101 56//101 14//101
f 56//101 55//101 14//101
f 55//102 33//102 51//102
f 33//102 29//102 51//102
f 14//102 55//102 2//102
f 55//102 51//102 2//102
f 54//103 32//103 52//103
f 32//103 30//103 52//103
f 7//103 54//103 3//103
f 54//103 52//103 3//103
f 53//104 6//104 2//104
f 53//104 2//104 51//104
f 31//104 53//104 51//104
f 31//104 51//104 29//104
f 49//121 47//121 48//121
f 49//122 48//122 50//122
f 2//123 6//123 50//123
f 6//124 49//124 50//124
f 14//125 2//125 48//125
f 2//126 50//126 48//126
f 6//127 24//127 47//127
f 6//128 47//128 49//128
f 24//129 14//129 48//129
f 24//130 48//130 47//130
f 46//131 44//131 45//131
f 44//132 43//132 45//132
f 5//133 1//133 46//133
f 5//134 46//134 45//134
f 1//135 9//135 44//135
f 1//136 44//136 46//136
f 19//137 5//137 43//137
f 5//138 45//138 43//138
f 9//139 19//139 44//139
f 19//140 43//140 44//140
f 13//141 4//141 8//141
f 13//142 8//142 23//142
f 11//143 12//143 22//143
f 11//144 22//144 21//144
f 10//145 11//145 20//145
f 11//146 21//146 20//146
f 9//147 10//147 19//147
f 10//148 20//148 19//148
f 28//149 7//149 18//149
f 7//150 3//150 18//150
f 26//151 27//151 16//151
f 27//152 17//152 16//152
f 25//153 26//153 16//153
f 25//154 16//154 15//154
f 24//155 25//155 15//155
f 24//156 15//156 14//156
