# Blender3D v249 OBJ File: station.blend
# www.blender3d.org
mtllib i2t2_station.mtl
v 1.000000 1.000000 -1.000000
v 1.000000 -1.000000 -1.000000
v -1.000000 -1.000000 -1.000000
v -1.000000 1.000000 -1.000000
v 0.400000 0.400000 1.000000
v 0.400000 -0.400000 1.000000
v -0.400000 -0.400000 1.000000
v -0.400000 0.400000 1.000000
v -0.400000 0.400000 -2.000000
v -0.400000 -0.400000 -2.000000
v 0.400000 -0.400000 -2.000000
v 0.400000 0.400000 -2.000000
v 0.192000 0.192000 -3.000000
v 0.192000 -0.192000 -3.000000
v -0.192000 -0.192000 -3.000000
v -0.192000 0.192000 -3.000000
v -0.115200 0.115200 -4.000000
v -0.115200 -0.115200 -4.000000
v 0.115200 -0.115200 -4.000000
v 0.115200 0.115200 -4.000000
v 0.192000 0.192000 -5.000000
v 0.192000 -0.192000 -5.000000
v -0.192000 -0.192000 -5.000000
v -0.192000 0.192000 -5.000000
v -0.100000 1.000000 0.100000
v 0.100000 1.000000 0.100000
v -0.100000 1.000000 -0.100000
v 0.100000 1.000000 -0.100000
v 0.100000 2.000000 -0.100000
v -0.100000 2.000000 -0.100000
v 0.100000 2.000000 0.100000
v -0.100000 2.000000 0.100000
v -0.100000 -1.000000 0.100000
v 0.100000 -1.000000 0.100000
v -0.100000 -1.000000 -0.100000
v 0.100000 -1.000000 -0.100000
v 0.100000 -2.000000 -0.100000
v -0.100000 -2.000000 -0.100000
v 0.100000 -2.000000 0.100000
v -0.100000 -2.000000 0.100000
v 1.000000 -0.100000 0.100000
v 1.000000 0.100000 0.100000
v 1.000000 -0.100000 -0.100000
v 1.000000 0.100000 -0.100000
v 2.000000 0.099999 -0.100000
v 2.000000 -0.100001 -0.100000
v 2.000000 0.099999 0.100000
v 2.000000 -0.100001 0.100000
v -1.000000 0.100000 0.100000
v -1.000000 -0.100000 0.100000
v -1.000000 0.100000 -0.100000
v -1.000000 -0.100000 -0.100000
v -2.000000 -0.100000 -0.100000
v -2.000000 0.100000 -0.100000
v -2.000000 -0.100000 0.100000
v -2.000000 0.100000 0.100000
v -1.200000 1.200000 1.500000
v -1.200000 -1.200000 1.500000
v 1.199999 -1.200001 1.500000
v 1.200001 1.199999 1.500000
v 1.200001 1.199999 2.000000
v 1.199999 -1.200001 2.000000
v -1.200000 -1.200000 2.000000
v -1.200000 1.200000 2.000000
v -1.080000 1.080000 2.000000
v -1.080000 -1.080000 2.000000
v 1.079999 -1.080001 2.000000
v 1.080000 1.079999 2.000000
v 1.080000 1.079999 2.100000
v 1.079999 -1.080001 2.100000
v -1.080000 -1.080000 2.100000
v -1.080000 1.080000 2.100000
v -1.296000 1.296000 2.100000
v -1.296000 -1.296000 2.100000
v 1.295999 -1.296001 2.100000
v 1.296001 1.295999 2.100000
v 1.296001 1.295999 2.600000
v 1.295999 -1.296001 2.600000
v -1.296000 -1.296000 2.600000
v -1.296000 1.296000 2.600000
v -1.166400 1.166400 2.600000
v -1.166400 -1.166400 2.600000
v 1.166399 -1.166401 2.600000
v 1.166401 1.166399 2.600000
v 1.166401 1.166399 2.700000
v 1.166399 -1.166401 2.700000
v -1.166400 -1.166400 2.700000
v -1.166400 1.166400 2.700000
v -1.399680 1.399680 2.700000
v -1.399680 -1.399680 2.700000
v 1.399679 -1.399681 2.700000
v 1.399681 1.399679 2.700000
v 1.399681 1.399679 3.200000
v 1.399679 -1.399681 3.200000
v -1.399680 -1.399680 3.200000
v -1.399680 1.399680 3.200000
v -1.119744 1.119744 3.300000
v -1.119744 -1.119744 3.300000
v 1.119744 -1.119745 3.300000
v 1.119745 1.119743 3.300000
v 0.783821 0.783820 3.400000
v 0.783820 -0.783821 3.400000
v -0.783821 -0.783821 3.400000
v -0.783821 0.783821 3.400000
v -0.470293 0.470292 3.500000
v -0.470293 -0.470292 3.500000
v 0.470292 -0.470293 3.500000
v 0.470293 0.470292 3.500000
v -0.000000 -0.000000 3.599999
v -0.000000 -0.000000 3.599999
v -0.000000 -0.000000 3.599999
v -0.000000 -0.000000 3.599999
vn 0.000000 0.000000 0.000000
vn -0.207984 0.000000 0.978132
vn -0.000000 -0.207984 0.978132
vn 0.000000 0.207984 0.978132
vn 0.207984 -0.000000 0.978132
vn 0.303868 -0.000000 0.952714
vn 0.000000 0.303868 0.952714
vn -0.000000 -0.303868 0.952714
vn -0.303868 0.000000 0.952714
vn -0.285313 0.000000 0.958434
vn -0.000000 -0.285313 0.958434
vn 0.000000 0.285313 0.958434
vn 0.285313 -0.000000 0.958434
vn 0.336404 -0.000000 0.941718
vn 0.000000 0.336404 0.941718
vn -0.000000 -0.336404 0.941718
vn -0.336404 0.000000 0.941718
vn -1.000000 0.000000 0.000000
vn -0.000000 -1.000000 -0.000000
vn 0.000000 1.000000 0.000000
vn 1.000000 -0.000001 0.000000
vn -0.000000 0.000000 -1.000000
vn -0.000000 0.000000 1.000000
vn 0.529999 -0.000000 -0.847998
vn 0.000000 0.529999 -0.847998
vn -0.000000 -0.529999 -0.847998
vn -0.529999 0.000000 -0.847998
vn -0.855186 -0.366508 0.366508
vn -0.447214 -0.894427 0.000000
vn -0.855186 0.366509 0.366508
vn -0.447214 0.894427 0.000000
vn -0.832050 0.000000 0.554700
vn 1.000000 0.000000 0.000001
vn 1.000000 0.000000 0.000000
vn 0.855186 0.366508 0.366508
vn 0.447214 0.894427 0.000000
vn 0.855186 -0.366508 0.366508
vn 0.447213 -0.894427 -0.000000
vn 0.832050 -0.000000 0.554700
vn 0.366508 -0.855186 0.366508
vn 0.894427 -0.447214 0.000000
vn -0.366509 -0.855186 0.366508
vn -0.894427 -0.447213 -0.000000
vn -0.000000 -0.832050 0.554700
vn 0.366509 0.855186 0.366508
vn 0.894427 0.447213 -0.000000
vn -0.366508 0.855186 0.366508
vn -0.894427 0.447214 0.000000
vn 0.000000 0.832050 0.554700
vn -0.997064 0.000000 0.076575
vn -0.997064 0.000000 0.076574
vn -0.000000 -0.997064 0.076574
vn 0.000000 0.997064 0.076574
vn 0.000000 0.997064 0.076575
vn 0.997064 -0.000000 0.076574
vn 0.997064 0.000000 -0.076574
vn 0.000000 0.997064 -0.076574
vn 0.000000 0.997064 -0.076575
vn -0.000000 -0.997064 -0.076574
vn -0.997064 0.000000 -0.076575
vn -0.997064 0.000000 -0.076574
vn -0.979046 0.000000 -0.203641
vn -0.000000 -0.979046 -0.203641
vn 0.000000 0.979046 -0.203641
vn 0.979046 0.000000 -0.203641
vn 0.857493 0.000000 -0.514496
vn 0.000000 0.857493 -0.514496
vn -0.000000 -0.857493 -0.514496
vn -0.857493 0.000000 -0.514496
usemtl station
s off
f 109//1 112//1 111//1
f 109//1 111//1 110//1
f 105//2 106//2 112//2
f 106//1 111//1 112//1
f 106//3 107//3 110//3
f 106//1 110//1 111//1
f 108//4 105//4 112//4
f 108//1 112//1 109//1
f 107//5 108//5 109//5
f 107//1 109//1 110//1
f 102//6 101//6 108//6
f 102//6 108//6 107//6
f 101//7 104//7 105//7
f 101//7 105//7 108//7
f 103//8 102//8 107//8
f 103//8 107//8 106//8
f 104//9 103//9 105//9
f 103//9 106//9 105//9
f 97//10 98//10 104//10
f 98//10 103//10 104//10
f 98//11 99//11 102//11
f 98//11 102//11 103//11
f 100//12 97//12 101//12
f 97//12 104//12 101//12
f 99//13 100//13 101//13
f 99//13 101//13 102//13
f 94//14 93//14 99//14
f 93//14 100//14 99//14
f 93//15 96//15 100//15
f 96//15 97//15 100//15
f 95//16 94//16 99//16
f 95//16 99//16 98//16
f 96//17 95//17 97//17
f 95//17 98//17 97//17
f 89//18 90//18 95//18
f 89//18 95//18 96//18
f 90//19 91//19 94//19
f 90//19 94//19 95//19
f 92//20 89//20 96//20
f 92//20 96//20 93//20
f 91//21 92//21 93//21
f 91//21 93//21 94//21
f 86//22 85//22 91//22
f 85//22 92//22 91//22
f 85//22 88//22 92//22
f 88//22 89//22 92//22
f 87//22 86//22 91//22
f 87//22 91//22 90//22
f 88//22 87//22 90//22
f 88//22 90//22 89//22
f 81//18 82//18 87//18
f 81//18 87//18 88//18
f 82//19 83//19 86//19
f 82//19 86//19 87//19
f 84//20 81//20 88//20
f 84//20 88//20 85//20
f 83//21 84//21 85//21
f 83//21 85//21 86//21
f 78//23 77//23 84//23
f 78//23 84//23 83//23
f 77//23 80//23 81//23
f 77//23 81//23 84//23
f 79//23 78//23 83//23
f 79//23 83//23 82//23
f 80//23 79//23 81//23
f 79//23 82//23 81//23
usemtl fraction
f 73//18 74//18 79//18
f 73//18 79//18 80//18
f 74//19 75//19 78//19
f 74//19 78//19 79//19
f 76//20 73//20 80//20
f 76//20 80//20 77//20
f 75//21 76//21 77//21
f 75//21 77//21 78//21
usemtl station
f 70//22 69//22 75//22
f 69//22 76//22 75//22
f 69//22 72//22 73//22
f 69//22 73//22 76//22
f 71//22 70//22 74//22
f 70//22 75//22 74//22
f 72//22 71//22 74//22
f 72//22 74//22 73//22
f 65//18 66//18 71//18
f 65//18 71//18 72//18
f 66//19 67//19 70//19
f 66//19 70//19 71//19
f 68//20 65//20 72//20
f 68//20 72//20 69//20
f 67//21 68//21 69//21
f 67//21 69//21 70//21
f 62//23 61//23 68//23
f 62//23 68//23 67//23
f 61//23 64//23 68//23
f 64//23 65//23 68//23
f 63//23 62//23 67//23
f 63//23 67//23 66//23
f 64//23 63//23 66//23
f 64//23 66//23 65//23
f 57//18 58//18 63//18
f 57//18 63//18 64//18
f 58//19 59//19 62//19
f 58//19 62//19 63//19
f 60//20 57//20 64//20
f 60//20 64//20 61//20
f 59//21 60//21 61//21
f 59//21 61//21 62//21
f 6//24 5//24 59//24
f 5//24 60//24 59//24
f 5//25 8//25 57//25
f 5//25 57//25 60//25
f 7//26 6//26 58//26
f 6//26 59//26 58//26
f 8//27 7//27 58//27
f 8//27 58//27 57//27
f 53//18 55//18 56//18
f 53//18 56//18 54//18
f 50//23 49//23 55//23
f 49//23 56//23 55//23
f 49//20 51//20 56//20
f 51//20 54//20 56//20
f 52//19 50//19 55//19
f 52//19 55//19 53//19
f 51//22 52//22 53//22
f 51//22 53//22 54//22
f 4//18 3//18 52//18
f 4//18 52//18 51//18
usemtl fraction
f 3//28 7//28 52//28
f 7//29 50//29 52//29
f 8//30 4//30 51//30
f 8//31 51//31 49//31
usemtl station
f 7//32 8//32 50//32
f 8//32 49//32 50//32
f 45//21 47//21 48//21
f 45//33 48//33 46//33
f 42//23 41//23 48//23
f 42//23 48//23 47//23
f 41//19 43//19 48//19
f 43//19 46//19 48//19
f 44//20 42//20 47//20
f 44//20 47//20 45//20
f 43//22 44//22 45//22
f 43//22 45//22 46//22
f 2//34 1//34 44//34
f 2//34 44//34 43//34
usemtl fraction
f 1//35 5//35 44//35
f 5//36 42//36 44//36
f 6//37 2//37 43//37
f 6//38 43//38 41//38
usemtl station
f 5//39 6//39 41//39
f 5//39 41//39 42//39
f 37//19 39//19 40//19
f 37//19 40//19 38//19
f 34//23 33//23 39//23
f 33//23 40//23 39//23
f 33//18 35//18 38//18
f 33//18 38//18 40//18
f 36//34 34//34 37//34
f 34//34 39//34 37//34
f 35//22 36//22 37//22
f 35//22 37//22 38//22
f 3//19 2//19 36//19
f 3//19 36//19 35//19
usemtl fraction
f 2//40 6//40 36//40
f 6//41 34//41 36//41
f 7//42 3//42 35//42
f 7//43 35//43 33//43
usemtl station
f 6//44 7//44 33//44
f 6//44 33//44 34//44
f 31//20 29//20 30//20
f 31//20 30//20 32//20
f 25//23 26//23 32//23
f 26//23 31//23 32//23
f 27//18 25//18 30//18
f 25//18 32//18 30//18
f 26//34 28//34 29//34
f 26//34 29//34 31//34
f 28//22 27//22 30//22
f 28//22 30//22 29//22
f 1//20 4//20 27//20
f 1//20 27//20 28//20
usemtl fraction
f 5//45 1//45 28//45
f 5//46 28//46 26//46
f 4//47 8//47 27//47
f 8//48 25//48 27//48
usemtl station
f 8//49 5//49 26//49
f 8//49 26//49 25//49
f 21//22 22//22 23//22
f 21//22 23//22 24//22
f 18//50 17//50 24//50
f 18//51 24//51 23//51
f 19//52 18//52 23//52
f 19//52 23//52 22//52
f 17//53 20//53 21//53
f 17//54 21//54 24//54
f 20//55 19//55 21//55
f 19//55 22//55 21//55
f 13//56 14//56 19//56
f 13//56 19//56 20//56
f 16//57 13//57 20//57
f 16//58 20//58 17//58
f 14//59 15//59 18//59
f 14//59 18//59 19//59
f 15//60 16//60 17//60
f 15//61 17//61 18//61
f 10//62 9//62 16//62
f 10//62 16//62 15//62
f 11//63 10//63 15//63
f 11//63 15//63 14//63
f 9//64 12//64 13//64
f 9//64 13//64 16//64
f 12//65 11//65 14//65
f 12//65 14//65 13//65
f 1//66 2//66 11//66
f 1//66 11//66 12//66
f 4//67 1//67 12//67
f 4//67 12//67 9//67
f 2//68 3//68 10//68
f 2//68 10//68 11//68
f 3//69 4//69 10//69
f 4//69 9//69 10//69
